{
    "asset" : {
        "generator" : "Khronos glTF Blender I/O v1.2.42",
        "version" : "2.0"
    },
    "scene" : 0,
    "scenes" : [
        {
            "name" : "Scene",
            "nodes" : [
                0
            ]
        }
    ],
    "nodes" : [
        {
            "mesh" : 0,
            "name" : "Plane6314.1014",
            "rotation" : [
                0.0028178254142403603,
                -0.707101047039032,
                0.7071012854576111,
                0.0028178058564662933
            ],
            "scale" : [
                0.001833468908444047,
                0.0021771974861621857,
                0.0012868180638179183
            ]
        }
    ],
    "materials" : [
        {
            "doubleSided" : true,
            "emissiveFactor" : [
                0,
                0,
                0
            ],
            "name" : "GrassBlade_05.001",
            "pbrMetallicRoughness" : {
                "baseColorFactor" : [
                    0.2015562802553177,
                    0.2746773064136505,
                    0.0666259378194809,
                    1
                ],
                "metallicFactor" : 0,
                "roughnessFactor" : 0.5527864098548889
            }
        },
        {
            "doubleSided" : true,
            "emissiveFactor" : [
                0,
                0,
                0
            ],
            "name" : "GrassBlade_03.001",
            "pbrMetallicRoughness" : {
                "baseColorFactor" : [
                    0.12788601219654083,
                    0.14251668751239777,
                    0.05129537358880043,
                    1
                ],
                "metallicFactor" : 0,
                "roughnessFactor" : 0.5527864098548889
            }
        },
        {
            "doubleSided" : true,
            "emissiveFactor" : [
                0,
                0,
                0
            ],
            "name" : "GrassBlade_02.001",
            "pbrMetallicRoughness" : {
                "baseColorFactor" : [
                    0.11706289649009705,
                    0.1621597707271576,
                    0.03703998774290085,
                    1
                ],
                "metallicFactor" : 0,
                "roughnessFactor" : 0.5527864098548889
            }
        },
        {
            "doubleSided" : true,
            "emissiveFactor" : [
                0,
                0,
                0
            ],
            "name" : "GrassBlade_04.001",
            "pbrMetallicRoughness" : {
                "baseColorFactor" : [
                    0.2070458084344864,
                    0.2333184778690338,
                    0.07513561099767685,
                    1
                ],
                "metallicFactor" : 0,
                "roughnessFactor" : 0.5527864098548889
            }
        }
    ],
    "meshes" : [
        {
            "name" : "Mesh.001",
            "primitives" : [
                {
                    "attributes" : {
                        "POSITION" : 0,
                        "NORMAL" : 1,
                        "TEXCOORD_0" : 2
                    },
                    "indices" : 3,
                    "material" : 0
                },
                {
                    "attributes" : {
                        "POSITION" : 4,
                        "NORMAL" : 5,
                        "TEXCOORD_0" : 6
                    },
                    "indices" : 7,
                    "material" : 1
                },
                {
                    "attributes" : {
                        "POSITION" : 8,
                        "NORMAL" : 9,
                        "TEXCOORD_0" : 10
                    },
                    "indices" : 11,
                    "material" : 2
                },
                {
                    "attributes" : {
                        "POSITION" : 12,
                        "NORMAL" : 13,
                        "TEXCOORD_0" : 14
                    },
                    "indices" : 15,
                    "material" : 3
                }
            ]
        }
    ],
    "accessors" : [
        {
            "bufferView" : 0,
            "componentType" : 5126,
            "count" : 1612,
            "max" : [
                100.1263427734375,
                101.72021484375,
                98.6904296875
            ],
            "min" : [
                -102.93524169921875,
                -94.4598388671875,
                -134.572265625
            ],
            "type" : "VEC3"
        },
        {
            "bufferView" : 1,
            "componentType" : 5126,
            "count" : 1612,
            "type" : "VEC3"
        },
        {
            "bufferView" : 2,
            "componentType" : 5126,
            "count" : 1612,
            "type" : "VEC2"
        },
        {
            "bufferView" : 3,
            "componentType" : 5123,
            "count" : 5928,
            "type" : "SCALAR"
        },
        {
            "bufferView" : 4,
            "componentType" : 5126,
            "count" : 1860,
            "max" : [
                115.66085815429688,
                112.2310791015625,
                99.0517578125
            ],
            "min" : [
                -116.33251953125,
                -102.1051025390625,
                -165.99755859375
            ],
            "type" : "VEC3"
        },
        {
            "bufferView" : 5,
            "componentType" : 5126,
            "count" : 1860,
            "type" : "VEC3"
        },
        {
            "bufferView" : 6,
            "componentType" : 5126,
            "count" : 1860,
            "type" : "VEC2"
        },
        {
            "bufferView" : 7,
            "componentType" : 5123,
            "count" : 6840,
            "type" : "SCALAR"
        },
        {
            "bufferView" : 8,
            "componentType" : 5126,
            "count" : 1116,
            "max" : [
                140.98208618164062,
                127.8045654296875,
                99.25341796875
            ],
            "min" : [
                -145.12322998046875,
                -119.603515625,
                -182.41796875
            ],
            "type" : "VEC3"
        },
        {
            "bufferView" : 9,
            "componentType" : 5126,
            "count" : 1116,
            "type" : "VEC3"
        },
        {
            "bufferView" : 10,
            "componentType" : 5126,
            "count" : 1116,
            "type" : "VEC2"
        },
        {
            "bufferView" : 11,
            "componentType" : 5123,
            "count" : 4104,
            "type" : "SCALAR"
        },
        {
            "bufferView" : 12,
            "componentType" : 5126,
            "count" : 1736,
            "max" : [
                134.013916015625,
                123.646484375,
                99.14697265625
            ],
            "min" : [
                -137.0831298828125,
                -114.1158447265625,
                -132.51171875
            ],
            "type" : "VEC3"
        },
        {
            "bufferView" : 13,
            "componentType" : 5126,
            "count" : 1736,
            "type" : "VEC3"
        },
        {
            "bufferView" : 14,
            "componentType" : 5126,
            "count" : 1736,
            "type" : "VEC2"
        },
        {
            "bufferView" : 15,
            "componentType" : 5123,
            "count" : 6384,
            "type" : "SCALAR"
        }
    ],
    "bufferViews" : [
        {
            "buffer" : 0,
            "byteLength" : 19344,
            "byteOffset" : 0
        },
        {
            "buffer" : 0,
            "byteLength" : 19344,
            "byteOffset" : 19344
        },
        {
            "buffer" : 0,
            "byteLength" : 12896,
            "byteOffset" : 38688
        },
        {
            "buffer" : 0,
            "byteLength" : 11856,
            "byteOffset" : 51584
        },
        {
            "buffer" : 0,
            "byteLength" : 22320,
            "byteOffset" : 63440
        },
        {
            "buffer" : 0,
            "byteLength" : 22320,
            "byteOffset" : 85760
        },
        {
            "buffer" : 0,
            "byteLength" : 14880,
            "byteOffset" : 108080
        },
        {
            "buffer" : 0,
            "byteLength" : 13680,
            "byteOffset" : 122960
        },
        {
            "buffer" : 0,
            "byteLength" : 13392,
            "byteOffset" : 136640
        },
        {
            "buffer" : 0,
            "byteLength" : 13392,
            "byteOffset" : 150032
        },
        {
            "buffer" : 0,
            "byteLength" : 8928,
            "byteOffset" : 163424
        },
        {
            "buffer" : 0,
            "byteLength" : 8208,
            "byteOffset" : 172352
        },
        {
            "buffer" : 0,
            "byteLength" : 20832,
            "byteOffset" : 180560
        },
        {
            "buffer" : 0,
            "byteLength" : 20832,
            "byteOffset" : 201392
        },
        {
            "buffer" : 0,
            "byteLength" : 13888,
            "byteOffset" : 222224
        },
        {
            "buffer" : 0,
            "byteLength" : 12768,
            "byteOffset" : 236112
        }
    ],
    "buffers" : [
        {
            "byteLength" : 248880,
            "uri" : "data:application/octet-stream;base64,"
        }
    ]
}
